<svg width="48" height="48" viewBox="0 0 48 48" fill="none" xmlns="http://www.w3.org/2000/svg">
<path d="M1.16643 7.64381C1.05659 7.57459 0.97011 7.47563 0.917727 7.35918C0.798258 7.07298 0.798258 6.75293 0.917727 6.46672C0.970801 6.35005 1.05708 6.25048 1.16643 6.17969C1.27622 6.11416 1.40314 6.08066 1.53203 6.0832C1.66092 6.08066 1.78783 6.11416 1.89762 6.17969C2.00698 6.25048 2.09325 6.35005 2.14633 6.46672C2.2658 6.75293 2.2658 7.07298 2.14633 7.35918C2.09394 7.47563 2.00747 7.57459 1.89762 7.64381C1.78851 7.71109 1.66129 7.74551 1.53203 7.7427C1.40276 7.74551 1.27554 7.71109 1.16643 7.64381ZM1.77078 7.30371C1.8362 7.18372 1.8655 7.04832 1.85534 6.91295C1.86741 6.77438 1.83806 6.63536 1.77078 6.51255C1.74505 6.47165 1.70828 6.43835 1.66444 6.41624C1.62061 6.39413 1.57138 6.38407 1.52208 6.38712C1.47274 6.38379 1.4234 6.39374 1.37952 6.41588C1.33563 6.43801 1.2989 6.47146 1.27337 6.51255C1.20796 6.63253 1.17866 6.76794 1.18881 6.9033C1.17866 7.03867 1.20796 7.17408 1.27337 7.29406C1.29931 7.33478 1.33612 7.36793 1.3799 7.39001C1.42369 7.41209 1.47281 7.42228 1.52208 7.41949C1.57033 7.42279 1.61864 7.41385 1.66225 7.39355C1.70586 7.37325 1.74326 7.34229 1.77078 7.30371Z" fill="#19439B"/>
<path d="M1.16643 9.93768C1.05659 9.86847 0.97011 9.7695 0.917727 9.65306C0.798258 9.36686 0.798258 9.0468 0.917727 8.7606C0.97011 8.64416 1.05659 8.54519 1.16643 8.47598C1.27554 8.40869 1.40276 8.37428 1.53203 8.37708C1.66129 8.37428 1.78851 8.40869 1.89762 8.47598C2.00747 8.54519 2.09394 8.64416 2.14633 8.7606C2.2658 9.0468 2.2658 9.36686 2.14633 9.65306C2.09394 9.7695 2.00747 9.86847 1.89762 9.93768C1.78851 10.005 1.66129 10.0394 1.53203 10.0366C1.40276 10.0394 1.27554 10.005 1.16643 9.93768ZM1.77078 9.59758C1.8362 9.4776 1.8655 9.34219 1.85534 9.20683C1.8655 9.07147 1.8362 8.93606 1.77078 8.81608C1.74505 8.77517 1.70828 8.74187 1.66444 8.71977C1.62061 8.69766 1.57138 8.68759 1.52208 8.69065C1.47274 8.68732 1.4234 8.69727 1.37952 8.7194C1.33563 8.74153 1.2989 8.77499 1.27337 8.81608C1.20796 8.93606 1.17866 9.07147 1.18881 9.20683C1.17866 9.34219 1.20796 9.4776 1.27337 9.59758C1.2989 9.63867 1.33563 9.67213 1.37952 9.69426C1.4234 9.71639 1.47274 9.72634 1.52208 9.72301C1.57138 9.72607 1.62061 9.716 1.66444 9.69389C1.70828 9.67179 1.74505 9.63849 1.77078 9.59758Z" fill="#19439B"/>
<path d="M3.18592 8.40363V10.0101H2.80291V8.70272H2.47214V8.40363H3.18592Z" fill="#19439B"/>
<path d="M4.22799 8.40363V10.0101H3.84747V8.70272H3.51669V8.40363H4.22799Z" fill="#19439B"/>
<path d="M1.16643 12.234C1.05708 12.1632 0.970801 12.0636 0.917727 11.9469C0.798258 11.6607 0.798258 11.3407 0.917727 11.0545C0.970844 10.9385 1.05716 10.8397 1.16643 10.7699C1.27601 10.7036 1.40291 10.6693 1.53203 10.671C1.66114 10.6693 1.78804 10.7036 1.89762 10.7699C2.00689 10.8397 2.09321 10.9385 2.14633 11.0545C2.2658 11.3407 2.2658 11.6607 2.14633 11.9469C2.09325 12.0636 2.00698 12.1632 1.89762 12.234C1.78783 12.2995 1.66092 12.333 1.53203 12.3305C1.40314 12.333 1.27622 12.2995 1.16643 12.234ZM1.77078 11.8915C1.82699 11.7684 1.85602 11.6353 1.85602 11.5007C1.85602 11.3661 1.82699 11.233 1.77078 11.11C1.74446 11.0696 1.70757 11.0367 1.66389 11.0147C1.6202 10.9927 1.57127 10.9822 1.52208 10.9845C1.47281 10.9817 1.42369 10.9919 1.3799 11.014C1.33612 11.0361 1.29931 11.0692 1.27337 11.11C1.21717 11.233 1.18813 11.3661 1.18813 11.5007C1.18813 11.6353 1.21717 11.7684 1.27337 11.8915C1.2989 11.9325 1.33563 11.966 1.37952 11.9881C1.4234 12.0103 1.47274 12.0202 1.52208 12.0169C1.57138 12.0199 1.62061 12.0099 1.66444 11.9878C1.70828 11.9657 1.74505 11.9324 1.77078 11.8915Z" fill="#19439B"/>
<path d="M2.88995 12.234C2.78041 12.1634 2.69408 12.0638 2.64125 11.9469C2.5805 11.8056 2.54922 11.6539 2.54922 11.5007C2.54922 11.3475 2.5805 11.1959 2.64125 11.0545C2.6934 10.9365 2.78011 10.8359 2.89063 10.7652C3.00115 10.6946 3.13063 10.6569 3.26301 10.6569C3.39539 10.6569 3.52486 10.6946 3.63538 10.7652C3.7459 10.8359 3.83261 10.9365 3.88477 11.0545C3.94551 11.1959 3.97679 11.3475 3.97679 11.5007C3.97679 11.6539 3.94551 11.8056 3.88477 11.9469C3.83387 12.0643 3.74737 12.1638 3.63675 12.2323C3.52614 12.3008 3.39665 12.335 3.26549 12.3305C3.13325 12.3349 3.0026 12.3013 2.88995 12.234ZM3.4943 11.8915C3.55174 11.7687 3.58145 11.6355 3.58145 11.5007C3.58145 11.3659 3.55174 11.2327 3.4943 11.11C3.46837 11.0692 3.43156 11.0361 3.38777 11.014C3.34399 10.9919 3.29486 10.9817 3.2456 10.9845C3.19873 10.9838 3.1525 10.9951 3.11149 11.0171C3.07047 11.0391 3.03611 11.0711 3.01182 11.11C2.95438 11.2327 2.92467 11.3659 2.92467 11.5007C2.92467 11.6355 2.95438 11.7687 3.01182 11.8915C3.03573 11.9307 3.07001 11.963 3.11111 11.985C3.15221 12.0071 3.19864 12.0181 3.2456 12.0169C3.29494 12.0202 3.34427 12.0103 3.38816 11.9881C3.43204 11.966 3.46877 11.9326 3.4943 11.8915Z" fill="#19439B"/>
<path d="M4.90943 10.6975V12.3015H4.52643V10.9966H4.19565V10.6975H4.90943Z" fill="#19439B"/>
<path d="M5.96891 10.6975V12.3015H5.57098V10.9966H5.2402V10.6975H5.96891Z" fill="#19439B"/>
<path d="M7.00104 10.6975V12.3015H6.61804V10.9966H6.28726V10.6975H7.00104Z" fill="#19439B"/>
<path d="M1.45991 12.9914V14.5978H1.0769V13.2905H0.746124V12.9914H1.45991Z" fill="#19439B"/>
<path d="M2.21098 14.5278C2.10144 14.4572 2.01511 14.3576 1.96228 14.2408C1.89694 14.1008 1.86547 13.9482 1.87026 13.7946C1.86599 13.641 1.89744 13.4885 1.96228 13.3483C2.01443 13.2303 2.10114 13.1298 2.21166 13.0591C2.32218 12.9884 2.45166 12.9507 2.58404 12.9507C2.71642 12.9507 2.84589 12.9884 2.95641 13.0591C3.06693 13.1298 3.15364 13.2303 3.2058 13.3483C3.27064 13.4885 3.30209 13.641 3.29782 13.7946C3.29799 13.9457 3.26314 14.0949 3.19585 14.2312C3.14302 14.348 3.05669 14.4476 2.94715 14.5182C2.8364 14.5828 2.70958 14.617 2.58031 14.617C2.45104 14.617 2.32422 14.5828 2.21347 14.5182L2.21098 14.5278ZM2.81533 14.1853C2.88161 14.0656 2.91178 13.9302 2.90238 13.7946C2.9113 13.6598 2.88115 13.5253 2.81533 13.4062C2.78992 13.3649 2.75329 13.3311 2.70943 13.3086C2.66557 13.286 2.61618 13.2756 2.56663 13.2784C2.51948 13.2777 2.47298 13.2892 2.4319 13.3116C2.39083 13.3341 2.35664 13.3667 2.33285 13.4062C2.26703 13.5253 2.23688 13.6598 2.2458 13.7946C2.23641 13.9302 2.26657 14.0656 2.33285 14.1853C2.35676 14.2245 2.39104 14.2568 2.43214 14.2789C2.47324 14.3009 2.51967 14.3119 2.56663 14.3108C2.61597 14.3141 2.66531 14.3041 2.70919 14.282C2.75308 14.2599 2.78981 14.2264 2.81533 14.1853Z" fill="#19439B"/>
<path d="M4.22799 12.9914V14.5978H3.84747V13.2905H3.51669V12.9914H4.22799Z" fill="#19439B"/>
<path d="M4.9741 14.5278C4.86394 14.4537 4.7777 14.3509 4.7254 14.2311C4.66213 14.0906 4.63157 13.9382 4.63587 13.7849C4.63348 13.6349 4.664 13.4861 4.7254 13.3483C4.77933 13.2328 4.86547 13.1342 4.9741 13.0637C5.08369 12.9975 5.21058 12.9631 5.3397 12.9648C5.46955 12.9635 5.59715 12.9978 5.70778 13.0637C5.8166 13.1341 5.90279 13.2327 5.95649 13.3483C6.01929 13.489 6.04984 13.6413 6.04602 13.7946C6.0528 13.9438 6.02651 14.0926 5.96892 14.2311C5.91527 14.3475 5.82912 14.4469 5.72022 14.5182C5.60959 14.5841 5.48199 14.6184 5.35214 14.6171C5.21982 14.624 5.08833 14.593 4.9741 14.5278ZM5.57846 14.1853C5.64387 14.0653 5.67317 13.9299 5.66302 13.7946C5.6727 13.66 5.64341 13.5255 5.57846 13.4062C5.55311 13.3674 5.51805 13.3354 5.47652 13.3132C5.43499 13.291 5.38835 13.2794 5.34094 13.2794C5.29353 13.2794 5.2469 13.291 5.20537 13.3132C5.16384 13.3354 5.12877 13.3674 5.10343 13.4062C5.03847 13.5255 5.00919 13.66 5.01887 13.7946C5.00872 13.9299 5.03802 14.0653 5.10343 14.1853C5.12919 14.2236 5.1644 14.2551 5.20588 14.2769C5.24735 14.2987 5.29377 14.3101 5.34094 14.3101C5.38811 14.3101 5.43454 14.2987 5.47601 14.2769C5.51749 14.2551 5.5527 14.2236 5.57846 14.1853Z" fill="#19439B"/>
<path d="M7.00104 12.9914V14.5978H6.61804V13.2905H6.28726V12.9914H7.00104Z" fill="#19439B"/>
<path d="M8.0456 12.9914V14.5978H7.66259V13.2905H7.33182V12.9914H8.0456Z" fill="#19439B"/>
<path d="M9.09263 12.9914V14.5978H8.70465V13.2905H8.37885V12.9914H9.09263Z" fill="#19439B"/>
<path d="M1.45991 15.2876V16.8844H1.0769V15.5843H0.746124V15.2876H1.45991Z" fill="#19439B"/>
<path d="M2.21098 16.8217C2.10086 16.7518 2.01438 16.6519 1.96228 16.5347C1.89694 16.3947 1.86547 16.2421 1.87026 16.0885C1.86599 15.9349 1.89744 15.7824 1.96228 15.6422C2.01443 15.5242 2.10114 15.4236 2.21166 15.353C2.32218 15.2823 2.45166 15.2446 2.58404 15.2446C2.71642 15.2446 2.84589 15.2823 2.95641 15.353C3.06693 15.4236 3.15364 15.5242 3.2058 15.6422C3.27064 15.7824 3.30209 15.9349 3.29782 16.0885C3.30261 16.2421 3.27114 16.3947 3.2058 16.5347C3.16494 16.6214 3.10541 16.6987 3.03122 16.7612C2.95702 16.8238 2.86988 16.8702 2.77564 16.8974C2.6814 16.9246 2.58225 16.9319 2.48486 16.9189C2.38746 16.9058 2.29408 16.8727 2.21098 16.8217ZM2.81533 16.4792C2.87272 16.3569 2.90241 16.2241 2.90241 16.0897C2.90241 15.9553 2.87272 15.8224 2.81533 15.7001C2.78992 15.6588 2.75329 15.625 2.70943 15.6024C2.66557 15.5799 2.61618 15.5695 2.56663 15.5723C2.51948 15.5716 2.47298 15.5831 2.4319 15.6055C2.39083 15.628 2.35664 15.6606 2.33285 15.7001C2.27547 15.8224 2.24578 15.9553 2.24578 16.0897C2.24578 16.2241 2.27547 16.3569 2.33285 16.4792C2.35676 16.5184 2.39104 16.5507 2.43214 16.5728C2.47324 16.5948 2.51967 16.6058 2.56663 16.6046C2.61597 16.608 2.66531 16.598 2.70919 16.5759C2.75308 16.5538 2.78981 16.5203 2.81533 16.4792Z" fill="#19439B"/>
<path d="M3.9345 16.8217C3.82438 16.7518 3.73789 16.6519 3.68579 16.5347C3.62167 16.3943 3.59025 16.242 3.59377 16.0885C3.59074 15.935 3.62214 15.7827 3.68579 15.6422C3.73795 15.5242 3.82466 15.4236 3.93518 15.353C4.0457 15.2823 4.17517 15.2446 4.30755 15.2446C4.43994 15.2446 4.56941 15.2823 4.67993 15.353C4.79045 15.4236 4.87716 15.5242 4.92932 15.6422C4.99415 15.7824 5.02561 15.9349 5.02134 16.0885C5.02613 16.2421 4.99465 16.3947 4.92932 16.5347C4.8781 16.6515 4.79195 16.7507 4.682 16.8195C4.57205 16.8883 4.44335 16.9235 4.31253 16.9206C4.17926 16.9242 4.04782 16.8898 3.9345 16.8217ZM4.53885 16.4792C4.59623 16.3569 4.62592 16.2241 4.62592 16.0897C4.62592 15.9553 4.59623 15.8224 4.53885 15.7001C4.51382 15.6612 4.47899 15.6292 4.43766 15.6069C4.39633 15.5847 4.34984 15.573 4.30258 15.573C4.25532 15.573 4.20883 15.5847 4.1675 15.6069C4.12617 15.6292 4.09134 15.6612 4.06631 15.7001C4.00893 15.8224 3.97924 15.9553 3.97924 16.0897C3.97924 16.2241 4.00893 16.3569 4.06631 16.4792C4.09177 16.5175 4.12674 16.5491 4.16802 16.5709C4.2093 16.5927 4.25556 16.6042 4.30258 16.6042C4.3496 16.6042 4.39586 16.5927 4.43714 16.5709C4.47842 16.5491 4.51339 16.5175 4.53885 16.4792Z" fill="#19439B"/>
<path d="M5.66051 16.8217C5.55124 16.7508 5.46499 16.6513 5.4118 16.5347C5.34854 16.3941 5.31797 16.2418 5.32227 16.0884C5.31845 15.9352 5.349 15.7829 5.4118 15.6422C5.46573 15.5267 5.55187 15.4281 5.66051 15.3576C5.77009 15.2913 5.89698 15.257 6.0261 15.2587C6.15595 15.2574 6.28355 15.2916 6.39418 15.3576C6.503 15.4279 6.58919 15.5266 6.64289 15.6422C6.70569 15.7829 6.73624 15.9352 6.73242 16.0884C6.73672 16.2418 6.70615 16.3941 6.64289 16.5347C6.59152 16.6518 6.50499 16.7513 6.39454 16.8201C6.2841 16.889 6.15485 16.924 6.02361 16.9206C5.89534 16.9218 5.76937 16.8875 5.66051 16.8217ZM6.26486 16.4792C6.3207 16.3565 6.34955 16.2238 6.34955 16.0897C6.34955 15.9555 6.3207 15.8228 6.26486 15.7001C6.23952 15.6612 6.20445 15.6292 6.16292 15.6071C6.12139 15.5849 6.07475 15.5732 6.02735 15.5732C5.97994 15.5732 5.9333 15.5849 5.89177 15.6071C5.85024 15.6292 5.81518 15.6612 5.78983 15.7001C5.73399 15.8228 5.70514 15.9555 5.70514 16.0897C5.70514 16.2238 5.73399 16.3565 5.78983 16.4792C5.81559 16.5175 5.8508 16.549 5.89228 16.5708C5.93375 16.5926 5.98018 16.604 6.02735 16.604C6.07452 16.604 6.12094 16.5926 6.16241 16.5708C6.20389 16.549 6.2391 16.5175 6.26486 16.4792Z" fill="#19439B"/>
<path d="M7.68001 15.2876V16.8844H7.29701V15.5843H6.96375V15.2876H7.68001Z" fill="#19439B"/>
<path d="M8.72456 15.2876V16.8844H8.34155V15.5843H8.01077V15.2876H8.72456Z" fill="#19439B"/>
<path d="M9.47566 16.8217C9.36554 16.7518 9.27905 16.6519 9.22696 16.5347C9.16162 16.3947 9.13015 16.2421 9.13494 16.0885C9.13067 15.9349 9.16212 15.7824 9.22696 15.6422C9.27911 15.5242 9.36582 15.4236 9.47634 15.353C9.58686 15.2823 9.71634 15.2446 9.84872 15.2446C9.9811 15.2446 10.1106 15.2823 10.2211 15.353C10.3316 15.4236 10.4183 15.5242 10.4705 15.6422C10.5341 15.7827 10.5655 15.935 10.5625 16.0885C10.566 16.242 10.5346 16.3943 10.4705 16.5347C10.4184 16.6519 10.3319 16.7518 10.2218 16.8217C10.1113 16.888 9.9836 16.9224 9.85369 16.9206C9.72037 16.9247 9.5888 16.8902 9.47566 16.8217ZM10.08 16.4792C10.1374 16.3569 10.1671 16.2241 10.1671 16.0897C10.1671 15.9553 10.1374 15.8224 10.08 15.7001C10.0546 15.6588 10.018 15.625 9.97411 15.6024C9.93025 15.5799 9.88086 15.5695 9.83131 15.5723C9.78416 15.5716 9.73766 15.5831 9.69658 15.6055C9.65551 15.628 9.62132 15.6606 9.59753 15.7001C9.54015 15.8224 9.51045 15.9553 9.51045 16.0897C9.51045 16.2241 9.54015 16.3569 9.59753 16.4792C9.62144 16.5184 9.65572 16.5507 9.69682 16.5728C9.73792 16.5948 9.78435 16.6058 9.83131 16.6046C9.88065 16.608 9.92999 16.598 9.97387 16.5759C10.0178 16.5538 10.0545 16.5203 10.08 16.4792Z" fill="#19439B"/>
<path d="M11.4951 15.2876V16.8844H11.1121V15.5843H10.7813V15.2876H11.4951Z" fill="#19439B"/>
<path d="M1.45991 17.5815V19.1855H1.0769V17.8782H0.746124V17.5815H1.45991Z" fill="#19439B"/>
<path d="M2.50693 17.5815V19.1855H2.12393V17.8782H1.79315V17.5815H2.50693Z" fill="#19439B"/>
<path d="M3.55149 17.5815V19.1855H3.16848V17.8782H2.83771V17.5815H3.55149Z" fill="#19439B"/>
<path d="M4.3026 19.1156C4.19396 19.045 4.10782 18.9465 4.05389 18.831C3.99109 18.6903 3.96054 18.538 3.96436 18.3847C3.96006 18.2314 3.99063 18.0791 4.05389 17.9385C4.10708 17.8219 4.19333 17.7224 4.3026 17.6515C4.41218 17.5852 4.53907 17.5509 4.66819 17.5526C4.79943 17.5492 4.92867 17.5842 5.03912 17.653C5.14956 17.7218 5.2361 17.8213 5.28747 17.9385C5.35073 18.0791 5.3813 18.2314 5.377 18.3847C5.38082 18.538 5.35027 18.6903 5.28747 18.831C5.23376 18.9466 5.14757 19.0452 5.03876 19.1156C4.92813 19.1815 4.80053 19.2158 4.67068 19.2145C4.54072 19.2166 4.41289 19.1823 4.3026 19.1156ZM4.90695 18.7731C4.96279 18.6503 4.99164 18.5177 4.99164 18.3835C4.99164 18.2494 4.96279 18.1167 4.90695 17.994C4.88142 17.9529 4.84469 17.9194 4.8008 17.8973C4.75692 17.8752 4.70759 17.8652 4.65824 17.8685C4.61129 17.8674 4.56486 17.8784 4.52376 17.9004C4.48265 17.9225 4.44837 17.9548 4.42446 17.994C4.36708 18.1163 4.33739 18.2491 4.33739 18.3835C4.33739 18.5179 4.36708 18.6507 4.42446 18.7731C4.44825 18.8126 4.48244 18.8452 4.52352 18.8677C4.5646 18.8901 4.61109 18.9016 4.65824 18.9009C4.70779 18.9037 4.75719 18.8933 4.80104 18.8707C4.8449 18.8482 4.88153 18.8144 4.90695 18.7731Z" fill="#19439B"/>
<path d="M6.32206 17.5815V19.1855H5.93905V17.8782H5.60828V17.5815H6.32206Z" fill="#19439B"/>
<path d="M7.07316 19.1156C6.96389 19.0457 6.87758 18.9469 6.82446 18.8309C6.76166 18.6902 6.73111 18.538 6.73493 18.3847C6.73063 18.2314 6.76119 18.079 6.82446 17.9385C6.86532 17.8518 6.92485 17.7745 6.99904 17.7119C7.07324 17.6494 7.16038 17.6029 7.25462 17.5757C7.34886 17.5486 7.44801 17.5412 7.5454 17.5543C7.6428 17.5674 7.73618 17.6005 7.81928 17.6514C7.92854 17.7223 8.01479 17.8219 8.06798 17.9385C8.13125 18.079 8.16182 18.2314 8.15752 18.3847C8.16133 18.538 8.13078 18.6902 8.06798 18.8309C8.01405 18.9464 7.92791 19.045 7.81928 19.1156C7.709 19.1803 7.58257 19.2145 7.45368 19.2145C7.32479 19.2145 7.19836 19.1803 7.08809 19.1156H7.07316ZM7.67752 18.7731C7.73336 18.6503 7.76221 18.5177 7.76221 18.3835C7.76221 18.2494 7.73336 18.1167 7.67752 17.994C7.65178 17.9531 7.61501 17.9198 7.57118 17.8976C7.52734 17.8755 7.47812 17.8655 7.42881 17.8685C7.38153 17.8674 7.33478 17.8784 7.2933 17.9004C7.25181 17.9225 7.21705 17.9547 7.19254 17.994C7.1367 18.1167 7.10785 18.2494 7.10785 18.3835C7.10785 18.5177 7.1367 18.6503 7.19254 18.7731C7.21693 18.8126 7.25159 18.8452 7.29306 18.8676C7.33452 18.89 7.38134 18.9015 7.42881 18.9009C7.47832 18.9034 7.52761 18.8929 7.57142 18.8704C7.61522 18.8479 7.6519 18.8142 7.67752 18.7731Z" fill="#19439B"/>
<path d="M9.09263 17.5815V19.1855H8.70465V17.8782H8.37885V17.5815H9.09263Z" fill="#19439B"/>
<path d="M9.84124 19.1156C9.73178 19.0459 9.64541 18.9471 9.59253 18.831C9.52887 18.6904 9.49748 18.5382 9.50051 18.3847C9.49699 18.2312 9.52841 18.0789 9.59253 17.9385C9.64463 17.8212 9.73111 17.7214 9.84124 17.6515C9.9517 17.5851 10.0794 17.5508 10.2093 17.5526C10.3401 17.5497 10.4688 17.5849 10.5788 17.6537C10.6887 17.7225 10.7749 17.8217 10.8261 17.9385C10.8914 18.0785 10.9229 18.2311 10.9181 18.3847C10.9224 18.5383 10.8909 18.6908 10.8261 18.831C10.785 18.9175 10.7253 18.9945 10.651 19.0568C10.5767 19.1191 10.4895 19.1653 10.3953 19.1923C10.3011 19.2192 10.202 19.2263 10.1047 19.2131C10.0075 19.1999 9.91423 19.1666 9.83129 19.1156H9.84124ZM10.4456 18.7731C10.503 18.6507 10.5327 18.5179 10.5327 18.3835C10.5327 18.2491 10.503 18.1163 10.4456 17.994C10.4201 17.9556 10.3852 17.9241 10.3439 17.9023C10.3026 17.8804 10.2563 17.869 10.2093 17.869C10.1623 17.869 10.116 17.8804 10.0748 17.9023C10.0335 17.9241 9.99851 17.9556 9.97305 17.994C9.91567 18.1163 9.88598 18.2491 9.88598 18.3835C9.88598 18.5179 9.91567 18.6507 9.97305 18.7731C9.99808 18.8119 10.0329 18.844 10.0742 18.8662C10.1156 18.8885 10.1621 18.9001 10.2093 18.9001C10.2566 18.9001 10.3031 18.8885 10.3444 18.8662C10.3857 18.844 10.4206 18.8119 10.4456 18.7731Z" fill="#19439B"/>
<path d="M11.8632 17.5815V19.1855H11.4777V17.8782H11.1469V17.5815H11.8632Z" fill="#19439B"/>
<path d="M12.6118 19.1156C12.5023 19.0459 12.416 18.9471 12.3631 18.8309C12.2983 18.6908 12.2668 18.5383 12.2711 18.3847C12.2663 18.2311 12.2978 18.0785 12.3631 17.9385C12.4144 17.8196 12.5008 17.718 12.6114 17.6466C12.722 17.5752 12.852 17.5371 12.9849 17.5371C13.1178 17.5371 13.2477 17.5752 13.3583 17.6466C13.4689 17.718 13.5553 17.8196 13.6066 17.9385C13.6651 18.08 13.6898 18.2326 13.6787 18.3847C13.683 18.5383 13.6516 18.6908 13.5867 18.8309C13.5456 18.9175 13.4859 18.9945 13.4116 19.0568C13.3373 19.1191 13.2501 19.1653 13.1559 19.1922C13.0617 19.2192 12.9626 19.2263 12.8654 19.2131C12.7681 19.1999 12.6748 19.1666 12.5919 19.1156H12.6118ZM13.2162 18.7731C13.2735 18.6507 13.3032 18.5179 13.3032 18.3835C13.3032 18.2491 13.2735 18.1163 13.2162 17.994C13.1907 17.9556 13.1557 17.9241 13.1144 17.9023C13.0732 17.8804 13.0269 17.869 12.9799 17.869C12.9329 17.869 12.8866 17.8804 12.8453 17.9023C12.804 17.9241 12.7691 17.9556 12.7436 17.994C12.6862 18.1163 12.6565 18.2491 12.6565 18.3835C12.6565 18.5179 12.6862 18.6507 12.7436 18.7731C12.7686 18.8119 12.8035 18.844 12.8448 18.8662C12.8861 18.8885 12.9326 18.9001 12.9799 18.9001C13.0271 18.9001 13.0736 18.8885 13.115 18.8662C13.1563 18.844 13.1911 18.8119 13.2162 18.7731Z" fill="#19439B"/>
<path d="M1.45991 19.8754V21.4818H1.0769V20.172H0.746124V19.8754H1.45991Z" fill="#19439B"/>
<path d="M2.21098 21.4094C2.10152 21.3398 2.01515 21.241 1.96228 21.1248C1.89744 20.9847 1.86599 20.8321 1.87026 20.6786C1.86547 20.525 1.89694 20.3724 1.96228 20.2324C2.01511 20.1155 2.10144 20.0159 2.21098 19.9453C2.32173 19.8807 2.44855 19.8465 2.57782 19.8465C2.70709 19.8465 2.83391 19.8807 2.94466 19.9453C3.0542 20.0159 3.14053 20.1155 3.19337 20.2324C3.2587 20.3724 3.29018 20.525 3.28539 20.6786C3.28966 20.8321 3.2582 20.9847 3.19337 21.1248C3.15227 21.2113 3.09257 21.2883 3.01827 21.3507C2.94397 21.413 2.85678 21.4592 2.76257 21.4861C2.66835 21.5131 2.56928 21.5202 2.472 21.507C2.37473 21.4937 2.28149 21.4605 2.19855 21.4094H2.21098ZM2.81533 21.0669C2.88205 20.9482 2.91226 20.8134 2.90238 20.6786C2.91178 20.543 2.88161 20.4076 2.81533 20.2878C2.78981 20.2467 2.75308 20.2133 2.70919 20.1912C2.66531 20.169 2.61597 20.1591 2.56663 20.1624C2.51967 20.1612 2.47324 20.1722 2.43214 20.1943C2.39104 20.2163 2.35676 20.2486 2.33285 20.2878C2.26657 20.4076 2.23641 20.543 2.2458 20.6786C2.23592 20.8134 2.26613 20.9482 2.33285 21.0669C2.35664 21.1064 2.39083 21.1391 2.4319 21.1615C2.47298 21.184 2.51948 21.1955 2.56663 21.1948C2.61618 21.1976 2.66557 21.1871 2.70943 21.1646C2.75329 21.1421 2.78992 21.1083 2.81533 21.0669Z" fill="#19439B"/>
<path d="M4.22799 19.8754V21.4818H3.84747V20.172H3.51669V19.8754H4.22799Z" fill="#19439B"/>
<path d="M4.9741 21.4094C4.86547 21.3389 4.77933 21.2403 4.7254 21.1248C4.6626 20.9841 4.63205 20.8319 4.63587 20.6786C4.63157 20.5253 4.66213 20.3729 4.7254 20.2324C4.77928 20.1162 4.86538 20.0168 4.9741 19.9453C5.08369 19.8791 5.21058 19.8448 5.3397 19.8464C5.46955 19.8451 5.59715 19.8794 5.70778 19.9453C5.81668 20.0166 5.90283 20.116 5.95649 20.2324C6.01975 20.3729 6.05032 20.5253 6.04602 20.6786C6.05377 20.831 6.02747 20.9832 5.96892 21.1248C5.91522 21.2405 5.82903 21.3391 5.72022 21.4094C5.60959 21.4754 5.48199 21.5097 5.35214 21.5083C5.21881 21.5124 5.08725 21.478 4.9741 21.4094ZM5.57846 21.0669C5.64418 20.9479 5.67352 20.8132 5.66302 20.6786C5.67317 20.5432 5.64387 20.4078 5.57846 20.2878C5.5527 20.2495 5.51749 20.218 5.47601 20.1962C5.43454 20.1744 5.38811 20.163 5.34094 20.163C5.29377 20.163 5.24735 20.1744 5.20588 20.1962C5.1644 20.218 5.12919 20.2495 5.10343 20.2878C5.03802 20.4078 5.00872 20.5432 5.01887 20.6786C5.00837 20.8132 5.03771 20.9479 5.10343 21.0669C5.12877 21.1058 5.16384 21.1378 5.20537 21.16C5.2469 21.1822 5.29353 21.1938 5.34094 21.1938C5.38835 21.1938 5.43499 21.1822 5.47652 21.16C5.51805 21.1378 5.55311 21.1058 5.57846 21.0669Z" fill="#19439B"/>
<path d="M6.71504 21.4094C6.60558 21.3398 6.51921 21.241 6.46634 21.1248C6.4015 20.9847 6.37005 20.8321 6.37432 20.6786C6.36952 20.525 6.401 20.3724 6.46634 20.2324C6.51917 20.1155 6.6055 20.0159 6.71504 19.9453C6.82579 19.8807 6.95261 19.8465 7.08188 19.8465C7.21115 19.8465 7.33797 19.8807 7.44872 19.9453C7.55826 20.0159 7.64459 20.1155 7.69742 20.2324C7.76276 20.3724 7.79424 20.525 7.78945 20.6786C7.79372 20.8321 7.76226 20.9847 7.69742 21.1248C7.65633 21.2113 7.59663 21.2883 7.52233 21.3507C7.44803 21.413 7.36084 21.4592 7.26663 21.4861C7.17241 21.5131 7.07334 21.5202 6.97606 21.507C6.87878 21.4937 6.78555 21.4605 6.70261 21.4094H6.71504ZM7.31939 21.0669C7.38611 20.9482 7.41632 20.8134 7.40644 20.6786C7.41583 20.543 7.38567 20.4076 7.31939 20.2878C7.29393 20.2495 7.25896 20.218 7.21769 20.1961C7.17641 20.1743 7.13014 20.1629 7.08312 20.1629C7.03611 20.1629 6.98984 20.1743 6.94856 20.1961C6.90728 20.218 6.87231 20.2495 6.84685 20.2878C6.78058 20.4076 6.75041 20.543 6.75981 20.6786C6.74993 20.8134 6.78014 20.9482 6.84685 21.0669C6.87189 21.1058 6.90671 21.1379 6.94804 21.1601C6.98938 21.1823 7.03586 21.194 7.08312 21.194C7.13039 21.194 7.17687 21.1823 7.21821 21.1601C7.25954 21.1379 7.29436 21.1058 7.31939 21.0669Z" fill="#19439B"/>
<path d="M8.72456 19.8754V21.4818H8.34155V20.172H8.01077V19.8754H8.72456Z" fill="#19439B"/>
<path d="M9.7716 19.8754V21.4818H9.38859V20.172H9.05533V19.8754H9.7716Z" fill="#19439B"/>
<path d="M10.8162 19.8754V21.4818H10.4456V20.172H10.1024V19.8754H10.8162Z" fill="#19439B"/>
<path d="M11.8632 19.8754V21.4818H11.4777V20.172H11.1469V19.8754H11.8632Z" fill="#19439B"/>
<path d="M12.6118 21.4094C12.5023 21.3398 12.416 21.241 12.3631 21.1248C12.2983 20.9847 12.2668 20.8321 12.2711 20.6786C12.2663 20.525 12.2978 20.3724 12.3631 20.2324C12.4159 20.1155 12.5023 20.0159 12.6118 19.9453C12.7225 19.8807 12.8494 19.8465 12.9786 19.8465C13.1079 19.8465 13.2347 19.8807 13.3455 19.9453C13.455 20.0159 13.5413 20.1155 13.5942 20.2324C13.657 20.3729 13.6859 20.5255 13.6787 20.6786C13.683 20.8321 13.6516 20.9847 13.5867 21.1248C13.5456 21.2113 13.4859 21.2883 13.4116 21.3507C13.3373 21.413 13.2501 21.4592 13.1559 21.4861C13.0617 21.5131 12.9626 21.5202 12.8654 21.507C12.7681 21.4937 12.6748 21.4605 12.5919 21.4094H12.6118ZM13.2162 21.0669C13.2829 20.9482 13.3131 20.8134 13.3032 20.6786C13.3126 20.543 13.2824 20.4076 13.2162 20.2878C13.1907 20.2495 13.1557 20.218 13.1144 20.1961C13.0732 20.1743 13.0269 20.1629 12.9799 20.1629C12.9329 20.1629 12.8866 20.1743 12.8453 20.1961C12.804 20.218 12.7691 20.2495 12.7436 20.2878C12.6773 20.4076 12.6472 20.543 12.6566 20.6786C12.6467 20.8134 12.6769 20.9482 12.7436 21.0669C12.7686 21.1058 12.8035 21.1379 12.8448 21.1601C12.8861 21.1823 12.9326 21.194 12.9799 21.194C13.0271 21.194 13.0736 21.1823 13.115 21.1601C13.1563 21.1379 13.1911 21.1058 13.2162 21.0669Z" fill="#19439B"/>
<path d="M14.6313 19.8754V21.4818H14.2483V20.172H13.9275V19.8754H14.6313Z" fill="#19439B"/>
<path d="M15.6684 19.8754V21.4818H15.2953V20.172H14.9621V19.8754H15.6684Z" fill="#19439B"/>
<path d="M1.45991 22.1693V23.7757H1.0769V22.4683H0.746124V22.1693H1.45991Z" fill="#19439B"/>
<path d="M2.50693 22.1693V23.7757H2.12393V22.4683H1.79315V22.1693H2.50693Z" fill="#19439B"/>
<path d="M3.55149 22.1693V23.7757H3.16848V22.4683H2.83771V22.1693H3.55149Z" fill="#19439B"/>
<path d="M4.3026 23.7033C4.19342 23.6334 4.10713 23.5346 4.0539 23.4187C3.93443 23.1325 3.93443 22.8124 4.0539 22.5262C4.10777 22.4101 4.19388 22.3107 4.3026 22.2392C4.41239 22.1737 4.53931 22.1402 4.6682 22.1427C4.79782 22.1405 4.92544 22.174 5.03628 22.2392C5.14518 22.3105 5.23133 22.4099 5.28498 22.5262C5.40445 22.8124 5.40445 23.1325 5.28498 23.4187C5.23199 23.5348 5.14564 23.6336 5.03628 23.7033C4.92616 23.7704 4.79821 23.8048 4.6682 23.8022C4.53893 23.805 4.41171 23.7706 4.3026 23.7033ZM4.90695 23.3632C4.96316 23.2402 4.99219 23.1071 4.99219 22.9725C4.99219 22.8379 4.96316 22.7048 4.90695 22.5817C4.88143 22.5406 4.84469 22.5072 4.80081 22.485C4.75693 22.4629 4.70759 22.453 4.65825 22.4563C4.61129 22.4551 4.56486 22.4661 4.52376 22.4881C4.48266 22.5102 4.44838 22.5425 4.42447 22.5817C4.36703 22.7044 4.33732 22.8377 4.33732 22.9725C4.33732 23.1072 4.36703 23.2405 4.42447 23.3632C4.44876 23.4021 4.48313 23.4341 4.52414 23.4561C4.56515 23.4781 4.61138 23.4893 4.65825 23.4886C4.70751 23.4914 4.75664 23.4813 4.80042 23.4592C4.84421 23.4371 4.88102 23.4039 4.90695 23.3632Z" fill="#19439B"/>
<path d="M6.32206 22.1693V23.7757H5.93905V22.4683H5.60828V22.1693H6.32206Z" fill="#19439B"/>
<path d="M7.07317 23.7033C6.96333 23.6341 6.87685 23.5351 6.82446 23.4187C6.705 23.1325 6.705 22.8124 6.82446 22.5262C6.87754 22.4096 6.96381 22.31 7.07317 22.2392C7.18399 22.176 7.31021 22.1427 7.43877 22.1427C7.56732 22.1427 7.69354 22.176 7.80436 22.2392C7.91308 22.3107 7.99919 22.4101 8.05307 22.5262C8.17254 22.8124 8.17254 23.1325 8.05307 23.4187C7.99983 23.5346 7.91354 23.6334 7.80436 23.7033C7.69408 23.768 7.56765 23.8022 7.43877 23.8022C7.30988 23.8022 7.18345 23.768 7.07317 23.7033ZM7.67752 23.3632C7.73373 23.2402 7.76276 23.1071 7.76276 22.9725C7.76276 22.8379 7.73373 22.7048 7.67752 22.5817C7.65179 22.5408 7.61502 22.5075 7.57118 22.4854C7.52735 22.4633 7.47812 22.4532 7.42882 22.4563C7.38154 22.4552 7.33479 22.4662 7.2933 22.4882C7.25181 22.5102 7.21706 22.5425 7.19255 22.5817C7.13634 22.7048 7.10731 22.8379 7.10731 22.9725C7.10731 23.1071 7.13634 23.2402 7.19255 23.3632C7.21743 23.4021 7.25226 23.4341 7.29366 23.4561C7.33506 23.4781 7.38162 23.4893 7.42882 23.4886C7.478 23.4909 7.52693 23.4805 7.57062 23.4585C7.61431 23.4364 7.6512 23.4036 7.67752 23.3632Z" fill="#19439B"/>
<path d="M8.79669 23.7033C8.68675 23.6342 8.60024 23.5352 8.54798 23.4187C8.48724 23.2773 8.45596 23.1256 8.45596 22.9725C8.45596 22.8193 8.48724 22.6676 8.54798 22.5262C8.60082 22.4094 8.68715 22.3098 8.79669 22.2392C8.90648 22.1737 9.0334 22.1402 9.16228 22.1427C9.29344 22.1381 9.42293 22.1724 9.53354 22.2409C9.64416 22.3094 9.73066 22.4089 9.78156 22.5262C9.84231 22.6676 9.87358 22.8193 9.87358 22.9725C9.87358 23.1256 9.84231 23.2773 9.78156 23.4187C9.72953 23.5352 9.64276 23.634 9.53242 23.7023C9.42207 23.7707 9.29317 23.8054 9.16228 23.8022C9.03302 23.805 8.9058 23.7706 8.79669 23.7033ZM9.40104 23.3632C9.45847 23.2405 9.48819 23.1072 9.48819 22.9725C9.48819 22.8377 9.45847 22.7044 9.40104 22.5817C9.37551 22.5406 9.33878 22.5072 9.2949 22.485C9.25101 22.4629 9.20168 22.4529 9.15234 22.4563C9.10538 22.4551 9.05895 22.4661 9.01785 22.4881C8.97675 22.5102 8.94247 22.5425 8.91855 22.5817C8.86112 22.7044 8.83141 22.8377 8.83141 22.9725C8.83141 23.1072 8.86112 23.2405 8.91855 23.3632C8.94285 23.4021 8.97721 23.4341 9.01823 23.4561C9.05924 23.4781 9.10547 23.4893 9.15234 23.4886C9.2016 23.4914 9.25073 23.4812 9.29451 23.4592C9.33829 23.4371 9.3751 23.4039 9.40104 23.3632Z" fill="#19439B"/>
<path d="M10.8162 22.1693V23.7757H10.4456V22.4683H10.1024V22.1693H10.8162Z" fill="#19439B"/>
<path d="M11.8632 22.1693V23.7757H11.4777V22.4683H11.1469V22.1693H11.8632Z" fill="#19439B"/>
<path d="M12.9078 22.1693V23.7757H12.5248V22.4683H12.1865V22.1693H12.9078Z" fill="#19439B"/>
<path d="M13.6564 23.7033C13.547 23.6336 13.4607 23.5348 13.4077 23.4187C13.2882 23.1325 13.2882 22.8124 13.4077 22.5262C13.4613 22.4099 13.5475 22.3105 13.6564 22.2392C13.7672 22.174 13.8948 22.1405 14.0244 22.1427C14.1533 22.1402 14.2802 22.1737 14.39 22.2392C14.4988 22.3107 14.5849 22.4101 14.6387 22.5262C14.7582 22.8124 14.7582 23.1325 14.6387 23.4187C14.5855 23.5346 14.4992 23.6334 14.39 23.7033C14.2809 23.7706 14.1537 23.805 14.0244 23.8022C13.8944 23.8048 13.7665 23.7704 13.6564 23.7033ZM14.2607 23.3632C14.3181 23.2405 14.3479 23.1072 14.3479 22.9725C14.3479 22.8377 14.3181 22.7044 14.2607 22.5817C14.2353 22.5434 14.2003 22.5118 14.159 22.49C14.1177 22.4682 14.0715 22.4567 14.0244 22.4567C13.9774 22.4567 13.9312 22.4682 13.8899 22.49C13.8486 22.5118 13.8136 22.5434 13.7882 22.5817C13.7307 22.7044 13.701 22.8377 13.701 22.9725C13.701 23.1072 13.7307 23.2405 13.7882 23.3632C13.8136 23.4016 13.8486 23.4331 13.8899 23.4549C13.9312 23.4767 13.9774 23.4882 14.0244 23.4882C14.0715 23.4882 14.1177 23.4767 14.159 23.4549C14.2003 23.4331 14.2353 23.4016 14.2607 23.3632Z" fill="#19439B"/>
<path d="M15.6684 22.1693V23.7757H15.2953V22.4683H14.9621V22.1693H15.6684Z" fill="#19439B"/>
<path d="M16.4269 23.7033C16.317 23.6342 16.2305 23.5352 16.1782 23.4187C16.1175 23.2773 16.0862 23.1256 16.0862 22.9725C16.0862 22.8193 16.1175 22.6676 16.1782 22.5262C16.2311 22.4094 16.3174 22.3098 16.4269 22.2392C16.5397 22.1737 16.6686 22.1392 16.8 22.1392C16.9314 22.1392 17.0603 22.1737 17.1731 22.2392C17.2826 22.3098 17.3689 22.4094 17.4218 22.5262C17.4825 22.6676 17.5138 22.8193 17.5138 22.9725C17.5138 23.1256 17.4825 23.2773 17.4218 23.4187C17.3695 23.5352 17.283 23.6342 17.1731 23.7033C17.0609 23.7703 16.9317 23.8058 16.8 23.8058C16.6683 23.8058 16.5391 23.7703 16.4269 23.7033ZM17.0313 23.3632C17.0887 23.2405 17.1184 23.1072 17.1184 22.9725C17.1184 22.8377 17.0887 22.7044 17.0313 22.5817C17.0058 22.5434 16.9709 22.5118 16.9296 22.49C16.8883 22.4682 16.842 22.4567 16.795 22.4567C16.748 22.4567 16.7017 22.4682 16.6605 22.49C16.6192 22.5118 16.5842 22.5434 16.5588 22.5817C16.5013 22.7044 16.4716 22.8377 16.4716 22.9725C16.4716 23.1072 16.5013 23.2405 16.5588 23.3632C16.5842 23.4016 16.6192 23.4331 16.6605 23.4549C16.7017 23.4767 16.748 23.4882 16.795 23.4882C16.842 23.4882 16.8883 23.4767 16.9296 23.4549C16.9709 23.4331 17.0058 23.4016 17.0313 23.3632Z" fill="#19439B"/>
<path d="M1.45991 24.4631V26.0695H1.0769V24.7622H0.746124V24.4631H1.45991Z" fill="#19439B"/>
<path d="M2.211 25.9972C2.10105 25.9281 2.01455 25.8291 1.96229 25.7126C1.90154 25.5712 1.87027 25.4195 1.87027 25.2663C1.87027 25.1132 1.90154 24.9615 1.96229 24.8201C2.01455 24.7036 2.10105 24.6046 2.211 24.5355C2.3201 24.4682 2.44733 24.4338 2.57659 24.4366C2.70668 24.4335 2.8348 24.4679 2.94467 24.5355C3.05462 24.6046 3.14112 24.7036 3.19338 24.8201C3.25412 24.9615 3.2854 25.1132 3.2854 25.2663C3.2854 25.4195 3.25412 25.5712 3.19338 25.7126C3.14112 25.8291 3.05462 25.9281 2.94467 25.9972C2.8348 26.0648 2.70668 26.0992 2.57659 26.0961C2.44733 26.0989 2.3201 26.0645 2.211 25.9972ZM2.81535 25.6571C2.87278 25.5344 2.9025 25.4011 2.9025 25.2663C2.9025 25.1316 2.87278 24.9983 2.81535 24.8756C2.78982 24.8345 2.75309 24.8011 2.7092 24.7789C2.66532 24.7568 2.61599 24.7468 2.56664 24.7502C2.51969 24.749 2.47326 24.76 2.43216 24.782C2.39105 24.8041 2.35677 24.8364 2.33286 24.8756C2.27543 24.9983 2.24571 25.1316 2.24571 25.2663C2.24571 25.4011 2.27543 25.5344 2.33286 25.6571C2.35677 25.6963 2.39105 25.7286 2.43216 25.7507C2.47326 25.7727 2.51969 25.7837 2.56664 25.7825C2.61599 25.7859 2.66532 25.7759 2.7092 25.7538C2.75309 25.7316 2.78982 25.6982 2.81535 25.6571Z" fill="#19439B"/>
<path d="M4.22799 24.4631V26.0695H3.84747V24.7622H3.51669V24.4631H4.22799Z" fill="#19439B"/>
<path d="M4.97408 25.9972C4.8649 25.9272 4.77861 25.8285 4.72537 25.7126C4.60591 25.4264 4.60591 25.1063 4.72537 24.8201C4.77861 24.7042 4.8649 24.6054 4.97408 24.5355C5.08319 24.4682 5.21041 24.4338 5.33967 24.4366C5.46969 24.434 5.59764 24.4684 5.70776 24.5355C5.81712 24.6052 5.90347 24.704 5.95646 24.8201C6.07593 25.1063 6.07593 25.4264 5.95646 25.7126C5.90347 25.8286 5.81712 25.9275 5.70776 25.9972C5.59764 26.0643 5.46969 26.0987 5.33967 26.0961C5.21041 26.0989 5.08319 26.0645 4.97408 25.9972ZM5.57843 25.6571C5.63464 25.534 5.66367 25.4009 5.66367 25.2663C5.66367 25.1317 5.63464 24.9986 5.57843 24.8756C5.55267 24.8373 5.51746 24.8058 5.47599 24.784C5.43451 24.7622 5.38809 24.7508 5.34092 24.7508C5.29375 24.7508 5.24732 24.7622 5.20585 24.784C5.16438 24.8058 5.12917 24.8373 5.10341 24.8756C5.0472 24.9986 5.01817 25.1317 5.01817 25.2663C5.01817 25.4009 5.0472 25.534 5.10341 25.6571C5.12917 25.6954 5.16438 25.7269 5.20585 25.7487C5.24732 25.7705 5.29375 25.7819 5.34092 25.7819C5.38809 25.7819 5.43451 25.7705 5.47599 25.7487C5.51746 25.7269 5.55267 25.6954 5.57843 25.6571Z" fill="#19439B"/>
<path d="M6.71502 25.9972C6.60508 25.9281 6.51858 25.8291 6.46632 25.7126C6.40557 25.5712 6.3743 25.4195 6.3743 25.2663C6.3743 25.1131 6.40557 24.9615 6.46632 24.8201C6.51858 24.7036 6.60508 24.6046 6.71502 24.5355C6.82577 24.4708 6.9526 24.4366 7.08186 24.4366C7.21113 24.4366 7.33795 24.4708 7.4487 24.5355C7.55865 24.6046 7.64515 24.7036 7.69741 24.8201C7.75815 24.9615 7.78943 25.1131 7.78943 25.2663C7.78943 25.4195 7.75815 25.5712 7.69741 25.7126C7.64515 25.8291 7.55865 25.9281 7.4487 25.9972C7.33795 26.0618 7.21113 26.096 7.08186 26.096C6.9526 26.096 6.82577 26.0618 6.71502 25.9972ZM7.31938 25.6571C7.37681 25.5343 7.40652 25.4011 7.40652 25.2663C7.40652 25.1315 7.37681 24.9983 7.31938 24.8756C7.29392 24.8372 7.25895 24.8057 7.21767 24.7839C7.17639 24.762 7.13012 24.7506 7.08311 24.7506C7.03609 24.7506 6.98982 24.762 6.94854 24.7839C6.90727 24.8057 6.8723 24.8372 6.84684 24.8756C6.7894 24.9983 6.75969 25.1315 6.75969 25.2663C6.75969 25.4011 6.7894 25.5343 6.84684 25.6571C6.8723 25.6954 6.90727 25.7269 6.94854 25.7488C6.98982 25.7706 7.03609 25.782 7.08311 25.782C7.13012 25.782 7.17639 25.7706 7.21767 25.7488C7.25895 25.7269 7.29392 25.6954 7.31938 25.6571Z" fill="#19439B"/>
<path d="M8.72456 24.4631V26.0695H8.34155V24.7622H8.01077V24.4631H8.72456Z" fill="#19439B"/>
<path d="M9.7716 24.4631V26.0695H9.38859V24.7622H9.05533V24.4631H9.7716Z" fill="#19439B"/>
<path d="M10.8162 24.4631V26.0695H10.4456V24.7622H10.1024V24.4631H10.8162Z" fill="#19439B"/>
<path d="M11.8632 24.4631V26.0695H11.4777V24.7622H11.1469V24.4631H11.8632Z" fill="#19439B"/>
<path d="M12.6118 25.9972C12.5019 25.9281 12.4154 25.8291 12.3631 25.7126C12.3024 25.5712 12.2711 25.4195 12.2711 25.2663C12.2711 25.1131 12.3024 24.9615 12.3631 24.8201C12.4154 24.7036 12.5019 24.6046 12.6118 24.5355C12.7226 24.4708 12.8494 24.4366 12.9787 24.4366C13.1079 24.4366 13.2347 24.4708 13.3455 24.5355C13.4554 24.6046 13.5419 24.7036 13.5942 24.8201C13.6549 24.9615 13.6862 25.1131 13.6862 25.2663C13.6862 25.4195 13.6549 25.5712 13.5942 25.7126C13.5419 25.8291 13.4554 25.9281 13.3455 25.9972C13.2347 26.0618 13.1079 26.096 12.9787 26.096C12.8494 26.096 12.7226 26.0618 12.6118 25.9972ZM13.2162 25.6571C13.2736 25.5343 13.3033 25.4011 13.3033 25.2663C13.3033 25.1315 13.2736 24.9983 13.2162 24.8756C13.1907 24.8372 13.1557 24.8057 13.1145 24.7839C13.0732 24.762 13.0269 24.7506 12.9799 24.7506C12.9329 24.7506 12.8866 24.762 12.8453 24.7839C12.8041 24.8057 12.7691 24.8372 12.7436 24.8756C12.6862 24.9983 12.6565 25.1315 12.6565 25.2663C12.6565 25.4011 12.6862 25.5343 12.7436 25.6571C12.7691 25.6954 12.8041 25.7269 12.8453 25.7488C12.8866 25.7706 12.9329 25.782 12.9799 25.782C13.0269 25.782 13.0732 25.7706 13.1145 25.7488C13.1557 25.7269 13.1907 25.6954 13.2162 25.6571Z" fill="#19439B"/>
<path d="M14.6313 24.4631V26.0695H14.2483V24.7622H13.9275V24.4631H14.6313Z" fill="#19439B"/>
<path d="M15.6684 24.4631V26.0695H15.2953V24.7622H14.9621V24.4631H15.6684Z" fill="#19439B"/>
<path d="M1.45991 26.757V28.3634H1.0769V27.0561H0.746124V26.757H1.45991Z" fill="#19439B"/>
<path d="M2.50693 26.757V28.3634H2.12393V27.0561H1.79315V26.757H2.50693Z" fill="#19439B"/>
<path d="M3.55149 26.757V28.3634H3.16848V27.0561H2.83771V26.757H3.55149Z" fill="#19439B"/>
<path d="M4.3026 28.2935C4.19388 28.222 4.10777 28.1226 4.0539 28.0064C3.93443 27.7202 3.93443 27.4002 4.0539 27.114C4.10713 26.998 4.19342 26.8993 4.3026 26.8293C4.41171 26.7621 4.53893 26.7276 4.6682 26.7304C4.79821 26.7279 4.92616 26.7623 5.03628 26.8293C5.14564 26.8991 5.23199 26.9979 5.28498 27.114C5.40445 27.4002 5.40445 27.7202 5.28498 28.0064C5.23133 28.1227 5.14518 28.2222 5.03628 28.2935C4.92544 28.3587 4.79782 28.3921 4.6682 28.3899C4.53931 28.3925 4.41239 28.359 4.3026 28.2935ZM4.90695 27.9509C4.96316 27.8279 4.99219 27.6948 4.99219 27.5602C4.99219 27.4256 4.96316 27.2925 4.90695 27.1694C4.88102 27.1287 4.84421 27.0956 4.80042 27.0735C4.75664 27.0514 4.70751 27.0412 4.65825 27.044C4.61138 27.0433 4.56515 27.0545 4.52414 27.0765C4.48313 27.0985 4.44876 27.1306 4.42447 27.1694C4.36703 27.2922 4.33732 27.4254 4.33732 27.5602C4.33732 27.695 4.36703 27.8282 4.42447 27.9509C4.44838 27.9902 4.48266 28.0225 4.52376 28.0445C4.56486 28.0666 4.61129 28.0776 4.65825 28.0764C4.70759 28.0797 4.75693 28.0698 4.80081 28.0476C4.84469 28.0255 4.88143 27.992 4.90695 27.9509Z" fill="#19439B"/>
<path d="M6.32206 26.757V28.3634H5.93905V27.0561H5.60828V26.757H6.32206Z" fill="#19439B"/>
<path d="M7.07317 28.2935C6.96381 28.2227 6.87754 28.1231 6.82446 28.0064C6.705 27.7202 6.705 27.4002 6.82446 27.114C6.87685 26.9975 6.96333 26.8986 7.07317 26.8293C7.18345 26.7646 7.30988 26.7304 7.43877 26.7304C7.56765 26.7304 7.69408 26.7646 7.80436 26.8293C7.91354 26.8993 7.99983 26.998 8.05307 27.114C8.17254 27.4002 8.17254 27.7202 8.05307 28.0064C7.99919 28.1226 7.91308 28.222 7.80436 28.2935C7.69354 28.3567 7.56732 28.39 7.43877 28.39C7.31021 28.39 7.18399 28.3567 7.07317 28.2935ZM7.67752 27.9509C7.73373 27.8279 7.76276 27.6948 7.76276 27.5602C7.76276 27.4256 7.73373 27.2925 7.67752 27.1694C7.6512 27.1291 7.61431 27.0962 7.57062 27.0742C7.52693 27.0521 7.478 27.0417 7.42882 27.044C7.38162 27.0434 7.33506 27.0546 7.29366 27.0766C7.25226 27.0986 7.21743 27.1305 7.19255 27.1694C7.13634 27.2925 7.10731 27.4256 7.10731 27.5602C7.10731 27.6948 7.13634 27.8279 7.19255 27.9509C7.21706 27.9902 7.25181 28.0224 7.2933 28.0445C7.33479 28.0665 7.38154 28.0775 7.42882 28.0764C7.47812 28.0794 7.52735 28.0694 7.57118 28.0473C7.61502 28.0252 7.65179 27.9919 7.67752 27.9509Z" fill="#19439B"/>
<path d="M9.09263 26.757V28.3634H8.70465V27.0561H8.37885V26.757H9.09263Z" fill="#19439B"/>
<path d="M9.84124 28.2935C9.7317 28.2229 9.64538 28.1233 9.59254 28.0064C9.53179 27.865 9.50052 27.7134 9.50052 27.5602C9.50052 27.407 9.53179 27.2554 9.59254 27.114C9.64457 26.9975 9.73133 26.8987 9.84168 26.8303C9.95203 26.762 10.0809 26.7272 10.2118 26.7305C10.3411 26.7277 10.4683 26.7621 10.5774 26.8294C10.6874 26.8985 10.7739 26.9975 10.8261 27.114C10.8869 27.2554 10.9181 27.407 10.9181 27.5602C10.9181 27.7134 10.8869 27.865 10.8261 28.0064C10.7733 28.1233 10.687 28.2229 10.5774 28.2935C10.4676 28.359 10.3407 28.3925 10.2118 28.39C10.0813 28.3929 9.95269 28.3594 9.84124 28.2935ZM10.4456 27.951C10.503 27.8282 10.5327 27.695 10.5327 27.5602C10.5327 27.4254 10.503 27.2922 10.4456 27.1695C10.4201 27.1311 10.3852 27.0996 10.3439 27.0778C10.3026 27.0559 10.2563 27.0445 10.2093 27.0445C10.1623 27.0445 10.116 27.0559 10.0748 27.0778C10.0335 27.0996 9.99852 27.1311 9.97306 27.1695C9.91562 27.2922 9.88591 27.4254 9.88591 27.5602C9.88591 27.695 9.91562 27.8282 9.97306 27.951C9.99852 27.9893 10.0335 28.0208 10.0748 28.0427C10.116 28.0645 10.1623 28.0759 10.2093 28.0759C10.2563 28.0759 10.3026 28.0645 10.3439 28.0427C10.3852 28.0208 10.4201 27.9893 10.4456 27.951Z" fill="#19439B"/>
<path d="M11.8632 26.757V28.3634H11.4777V27.0561H11.1469V26.757H11.8632Z" fill="#19439B"/>
<path d="M12.6118 28.2935C12.5023 28.2229 12.4159 28.1232 12.3631 28.0064C12.3024 27.865 12.2711 27.7134 12.2711 27.5602C12.2711 27.407 12.3024 27.2554 12.3631 27.114C12.4154 26.9975 12.5019 26.8985 12.6118 26.8294C12.7226 26.7647 12.8494 26.7305 12.9787 26.7305C13.1079 26.7305 13.2347 26.7647 13.3455 26.8294C13.4554 26.8985 13.5419 26.9975 13.5942 27.114C13.6549 27.2554 13.6862 27.407 13.6862 27.5602C13.6862 27.7134 13.6549 27.865 13.5942 28.0064C13.5414 28.1232 13.455 28.2229 13.3455 28.2935C13.2342 28.3566 13.1076 28.3899 12.9787 28.3899C12.8497 28.3899 12.7231 28.3566 12.6118 28.2935ZM13.2162 27.951C13.2736 27.8282 13.3033 27.695 13.3033 27.5602C13.3033 27.4254 13.2736 27.2922 13.2162 27.1695C13.1907 27.1311 13.1557 27.0996 13.1145 27.0778C13.0732 27.0559 13.0269 27.0445 12.9799 27.0445C12.9329 27.0445 12.8866 27.0559 12.8453 27.0778C12.8041 27.0996 12.7691 27.1311 12.7436 27.1695C12.6862 27.2922 12.6565 27.4254 12.6565 27.5602C12.6565 27.695 12.6862 27.8282 12.7436 27.951C12.7691 27.9893 12.8041 28.0208 12.8453 28.0427C12.8866 28.0645 12.9329 28.0759 12.9799 28.0759C13.0269 28.0759 13.0732 28.0645 13.1145 28.0427C13.1557 28.0208 13.1907 27.9893 13.2162 27.951Z" fill="#19439B"/>
<path d="M1.45991 29.0508V30.6573H1.0769V29.3499H0.746124V29.0508H1.45991Z" fill="#19439B"/>
<path d="M2.21098 30.5873C2.10144 30.5168 2.01511 30.4171 1.96228 30.3003C1.89694 30.1603 1.86547 30.0077 1.87026 29.8541C1.86599 29.7005 1.89744 29.548 1.96228 29.4078C2.01443 29.2898 2.10114 29.1893 2.21166 29.1186C2.32218 29.0479 2.45166 29.0103 2.58404 29.0103C2.71642 29.0103 2.84589 29.0479 2.95641 29.1186C3.06693 29.1893 3.15364 29.2898 3.2058 29.4078C3.27064 29.548 3.30209 29.7005 3.29782 29.8541C3.30261 30.0077 3.27114 30.1603 3.2058 30.3003C3.15296 30.4171 3.06664 30.5168 2.9571 30.5873C2.84635 30.652 2.71952 30.6862 2.59026 30.6862C2.46099 30.6862 2.33417 30.652 2.22342 30.5873H2.21098ZM2.81533 30.2448C2.88161 30.1251 2.91178 29.9897 2.90238 29.8541C2.91226 29.7192 2.88205 29.5844 2.81533 29.4657C2.78992 29.4244 2.75329 29.3906 2.70943 29.3681C2.66557 29.3455 2.61618 29.3351 2.56663 29.3379C2.51948 29.3372 2.47298 29.3487 2.4319 29.3711C2.39083 29.3936 2.35664 29.4263 2.33285 29.4657C2.26613 29.5844 2.23592 29.7192 2.2458 29.8541C2.23641 29.9897 2.26657 30.1251 2.33285 30.2448C2.35676 30.284 2.39104 30.3163 2.43214 30.3384C2.47324 30.3604 2.51967 30.3715 2.56663 30.3703C2.61597 30.3736 2.66531 30.3636 2.70919 30.3415C2.75308 30.3194 2.78981 30.2859 2.81533 30.2448Z" fill="#19439B"/>
<path d="M3.9345 30.5873C3.82495 30.5168 3.73863 30.4171 3.68579 30.3003C3.62167 30.1599 3.59025 30.0076 3.59377 29.8541C3.59074 29.7006 3.62214 29.5484 3.68579 29.4078C3.73795 29.2898 3.82466 29.1893 3.93518 29.1186C4.0457 29.0479 4.17517 29.0103 4.30755 29.0103C4.43994 29.0103 4.56941 29.0479 4.67993 29.1186C4.79045 29.1893 4.87716 29.2898 4.92932 29.4078C4.99415 29.548 5.02561 29.7005 5.02134 29.8541C5.02613 30.0077 4.99465 30.1603 4.92932 30.3003C4.87648 30.4171 4.79015 30.5168 4.68061 30.5873C4.57103 30.6536 4.44413 30.6879 4.31502 30.6862C4.1809 30.6903 4.04853 30.6559 3.9345 30.5873ZM4.53885 30.2448C4.60512 30.1251 4.63529 29.9897 4.6259 29.8541C4.63578 29.7192 4.60557 29.5844 4.53885 29.4657C4.51382 29.4269 4.47899 29.3948 4.43766 29.3726C4.39633 29.3503 4.34984 29.3387 4.30258 29.3387C4.25532 29.3387 4.20883 29.3503 4.1675 29.3726C4.12617 29.3948 4.09134 29.4269 4.06631 29.4657C3.99959 29.5844 3.96938 29.7192 3.97926 29.8541C3.96987 29.9897 4.00004 30.1251 4.06631 30.2448C4.09177 30.2832 4.12674 30.3147 4.16802 30.3365C4.2093 30.3584 4.25556 30.3698 4.30258 30.3698C4.3496 30.3698 4.39586 30.3584 4.43714 30.3365C4.47842 30.3147 4.51339 30.2832 4.53885 30.2448Z" fill="#19439B"/>
<path d="M5.66051 30.5873C5.55178 30.5159 5.46568 30.4165 5.4118 30.3003C5.34854 30.1597 5.31797 30.0074 5.32227 29.8541C5.31845 29.7008 5.349 29.5485 5.4118 29.4078C5.46573 29.2923 5.55187 29.1938 5.66051 29.1232C5.77009 29.057 5.89698 29.0226 6.0261 29.0243C6.15595 29.023 6.28355 29.0573 6.39418 29.1232C6.503 29.1936 6.58919 29.2922 6.64289 29.4078C6.70569 29.5485 6.73624 29.7008 6.73242 29.8541C6.73672 30.0074 6.70615 30.1597 6.64289 30.3003C6.58924 30.4166 6.50308 30.516 6.39418 30.5873C6.28355 30.6533 6.15595 30.6876 6.0261 30.6862C5.89698 30.6879 5.77009 30.6536 5.66051 30.5873ZM6.26486 30.2448C6.33027 30.1248 6.35957 29.9894 6.34942 29.8541C6.35992 29.7195 6.33058 29.5847 6.26486 29.4657C6.23952 29.4269 6.20445 29.3949 6.16292 29.3727C6.12139 29.3505 6.07475 29.3389 6.02735 29.3389C5.97994 29.3389 5.9333 29.3505 5.89177 29.3727C5.85024 29.3949 5.81518 29.4269 5.78983 29.4657C5.72411 29.5847 5.69477 29.7195 5.70527 29.8541C5.69512 29.9894 5.72442 30.1248 5.78983 30.2448C5.81559 30.2831 5.8508 30.3146 5.89228 30.3364C5.93375 30.3582 5.98018 30.3696 6.02735 30.3696C6.07452 30.3696 6.12094 30.3582 6.16241 30.3364C6.20389 30.3146 6.2391 30.2831 6.26486 30.2448Z" fill="#19439B"/>
<path d="M7.68001 29.0508V30.6573H7.29701V29.3499H6.96375V29.0508H7.68001Z" fill="#19439B"/>
<path d="M8.72456 29.0508V30.6573H8.34155V29.3499H8.01077V29.0508H8.72456Z" fill="#19439B"/>
<path d="M9.47566 30.5873C9.36612 30.5168 9.27979 30.4171 9.22696 30.3003C9.16162 30.1603 9.13015 30.0077 9.13494 29.8541C9.13067 29.7005 9.16212 29.548 9.22696 29.4078C9.27911 29.2898 9.36582 29.1893 9.47634 29.1186C9.58686 29.0479 9.71634 29.0103 9.84872 29.0103C9.9811 29.0103 10.1106 29.0479 10.2211 29.1186C10.3316 29.1893 10.4183 29.2898 10.4705 29.4078C10.5341 29.5484 10.5655 29.7006 10.5625 29.8541C10.566 30.0076 10.5346 30.1599 10.4705 30.3003C10.4191 30.4175 10.3326 30.517 10.2221 30.5858C10.1117 30.6546 9.98244 30.6896 9.85121 30.6862C9.71872 30.6898 9.58809 30.6554 9.47566 30.5873ZM10.08 30.2448C10.1463 30.1251 10.1765 29.9897 10.1671 29.8541C10.1769 29.7192 10.1467 29.5844 10.08 29.4657C10.0546 29.4244 10.018 29.3906 9.97411 29.3681C9.93025 29.3455 9.88086 29.3351 9.83131 29.3379C9.78416 29.3372 9.73766 29.3487 9.69658 29.3711C9.65551 29.3936 9.62132 29.4263 9.59753 29.4657C9.52972 29.5841 9.49944 29.7191 9.51048 29.8541C9.49983 29.9898 9.53007 30.1255 9.59753 30.2448C9.62144 30.284 9.65572 30.3163 9.69682 30.3384C9.73792 30.3604 9.78435 30.3715 9.83131 30.3703C9.88065 30.3736 9.92999 30.3636 9.97387 30.3415C10.0178 30.3194 10.0545 30.2859 10.08 30.2448Z" fill="#19439B"/>
<path d="M11.4951 29.0508V30.6573H11.1121V29.3499H10.7813V29.0508H11.4951Z" fill="#19439B"/>
<path d="M1.45991 31.3568V32.9632H1.0769V31.6559H0.746124V31.3568H1.45991Z" fill="#19439B"/>
<path d="M2.21098 32.8812C2.10086 32.8112 2.01438 32.7114 1.96228 32.5942C1.89694 32.4542 1.86547 32.3015 1.87026 32.1479C1.86599 31.9944 1.89744 31.8419 1.96228 31.7017C2.01443 31.5837 2.10114 31.4831 2.21166 31.4125C2.32218 31.3418 2.45166 31.3041 2.58404 31.3041C2.71642 31.3041 2.84589 31.3418 2.95641 31.4125C3.06693 31.4831 3.15364 31.5837 3.2058 31.7017C3.27064 31.8419 3.30209 31.9944 3.29782 32.1479C3.30261 32.3015 3.27114 32.4542 3.2058 32.5942C3.16494 32.6809 3.10541 32.7581 3.03122 32.8207C2.95702 32.8833 2.86988 32.9297 2.77564 32.9569C2.6814 32.9841 2.58225 32.9914 2.48486 32.9784C2.38746 32.9653 2.29408 32.9322 2.21098 32.8812ZM2.81533 32.5387C2.88161 32.4189 2.91178 32.2835 2.90238 32.1479C2.9113 32.0131 2.88115 31.8786 2.81533 31.7596C2.78992 31.7182 2.75329 31.6845 2.70943 31.6619C2.66557 31.6394 2.61618 31.6289 2.56663 31.6318C2.51948 31.6311 2.47298 31.6425 2.4319 31.665C2.39083 31.6875 2.35664 31.7201 2.33285 31.7596C2.26703 31.8786 2.23688 32.0131 2.2458 32.1479C2.23641 32.2835 2.26657 32.4189 2.33285 32.5387C2.35676 32.5779 2.39104 32.6102 2.43214 32.6323C2.47324 32.6543 2.51967 32.6653 2.56663 32.6641C2.61597 32.6674 2.66531 32.6575 2.70919 32.6354C2.75308 32.6132 2.78981 32.5798 2.81533 32.5387Z" fill="#19439B"/>
<path d="M4.22799 31.3568V32.9632H3.84747V31.6559H3.51669V31.3568H4.22799Z" fill="#19439B"/>
<path d="M4.9741 32.8812C4.86484 32.8103 4.77859 32.7108 4.7254 32.5942C4.66213 32.4536 4.63157 32.3012 4.63587 32.1479C4.63205 31.9946 4.6626 31.8424 4.7254 31.7017C4.77933 31.5862 4.86547 31.4876 4.9741 31.4171C5.08369 31.3508 5.21058 31.3165 5.3397 31.3182C5.46955 31.3168 5.59715 31.3511 5.70778 31.4171C5.8166 31.4874 5.90279 31.5861 5.95649 31.7017C6.01929 31.8424 6.04984 31.9946 6.04602 32.1479C6.05032 32.3012 6.01975 32.4536 5.95649 32.5942C5.90512 32.7113 5.81859 32.8108 5.70814 32.8796C5.59769 32.9485 5.46845 32.9835 5.33721 32.9801C5.20894 32.9813 5.08297 32.947 4.9741 32.8812ZM5.57846 32.5387C5.64387 32.4187 5.67317 32.2833 5.66302 32.1479C5.6727 32.0134 5.64341 31.8789 5.57846 31.7596C5.55311 31.7207 5.51805 31.6887 5.47652 31.6665C5.43499 31.6443 5.38835 31.6327 5.34094 31.6327C5.29353 31.6327 5.2469 31.6443 5.20537 31.6665C5.16384 31.6887 5.12877 31.7207 5.10343 31.7596C5.03848 31.8789 5.00919 32.0134 5.01887 32.1479C5.00872 32.2833 5.03802 32.4187 5.10343 32.5387C5.12919 32.577 5.1644 32.6085 5.20588 32.6303C5.24735 32.6521 5.29377 32.6635 5.34094 32.6635C5.38811 32.6635 5.43454 32.6521 5.47601 32.6303C5.51749 32.6085 5.5527 32.577 5.57846 32.5387Z" fill="#19439B"/>
<path d="M7.00104 31.3568V32.9632H6.61804V31.6559H6.28726V31.3568H7.00104Z" fill="#19439B"/>
<path d="M8.0456 31.3568V32.9632H7.66259V31.6559H7.33182V31.3568H8.0456Z" fill="#19439B"/>
<path d="M9.09263 31.3568V32.9632H8.70465V31.6559H8.37885V31.3568H9.09263Z" fill="#19439B"/>
<path d="M1.16644 35.1751C1.05717 35.1052 0.970852 35.0064 0.917735 34.8905C0.854731 34.749 0.824181 34.5959 0.828201 34.4418C0.824342 34.2937 0.853172 34.1465 0.912761 34.0101C0.964917 33.892 1.05163 33.7915 1.16215 33.7208C1.27267 33.6501 1.40214 33.6125 1.53452 33.6125C1.6669 33.6125 1.79638 33.6501 1.9069 33.7208C2.01742 33.7915 2.10413 33.892 2.15628 34.0101C2.21502 34.1467 2.243 34.2939 2.23836 34.4418C2.24238 34.5959 2.21183 34.749 2.14882 34.8905C2.09571 35.0064 2.00939 35.1052 1.90012 35.1751C1.79054 35.2413 1.66364 35.2757 1.53452 35.274C1.40456 35.2761 1.27673 35.2418 1.16644 35.1751ZM1.77079 34.8326C1.82664 34.7098 1.85548 34.5772 1.85548 34.443C1.85548 34.3089 1.82664 34.1762 1.77079 34.0535C1.74517 34.0123 1.7085 33.9787 1.66469 33.9561C1.62089 33.9336 1.5716 33.9231 1.52209 33.9256C1.47254 33.9228 1.42314 33.9332 1.37929 33.9558C1.33543 33.9783 1.2988 34.0121 1.27338 34.0535C1.21754 34.1762 1.18869 34.3089 1.18869 34.443C1.18869 34.5772 1.21754 34.7098 1.27338 34.8326C1.2988 34.8739 1.33543 34.9077 1.37929 34.9302C1.42314 34.9528 1.47254 34.9632 1.52209 34.9604C1.5716 34.963 1.62089 34.9524 1.66469 34.9299C1.7085 34.9074 1.74517 34.8737 1.77079 34.8326Z" fill="#19439B"/>
<path d="M2.88995 35.1751C2.78049 35.1054 2.69412 35.0066 2.64124 34.8905C2.5762 34.7495 2.54475 34.5962 2.54922 34.4418C2.54472 34.289 2.57619 34.1372 2.64124 33.998C2.69245 33.8812 2.7786 33.782 2.88856 33.7132C2.99851 33.6444 3.12721 33.6092 3.25803 33.6121C3.38793 33.6103 3.51565 33.6446 3.62611 33.711C3.73623 33.7809 3.82272 33.8807 3.87482 33.998C3.93873 34.1376 3.97015 34.2891 3.96684 34.4418C3.97007 34.5961 3.93867 34.7492 3.87482 34.8905C3.83372 34.977 3.77402 35.054 3.69972 35.1163C3.62542 35.1786 3.53823 35.2248 3.44402 35.2518C3.3498 35.2787 3.25073 35.2858 3.15345 35.2726C3.05618 35.2594 2.96294 35.2261 2.88 35.1751H2.88995ZM3.4943 34.8326C3.55168 34.7102 3.58137 34.5774 3.58137 34.443C3.58137 34.3086 3.55168 34.1758 3.4943 34.0535C3.46888 34.0121 3.43225 33.9783 3.38839 33.9558C3.34454 33.9333 3.29514 33.9228 3.24559 33.9256C3.19844 33.9249 3.15195 33.9364 3.11087 33.9589C3.06979 33.9813 3.0356 34.014 3.01181 34.0535C2.95443 34.1758 2.92474 34.3086 2.92474 34.443C2.92474 34.5774 2.95443 34.7102 3.01181 34.8326C3.0356 34.8721 3.06979 34.9047 3.11087 34.9272C3.15195 34.9496 3.19844 34.9611 3.24559 34.9604C3.29514 34.9632 3.34454 34.9528 3.38839 34.9303C3.43225 34.9077 3.46888 34.8739 3.4943 34.8326Z" fill="#19439B"/>
<path d="M4.90943 33.641V35.245H4.52643V33.9377H4.19565V33.641H4.90943Z" fill="#19439B"/>
<path d="M5.96891 33.641V35.245H5.57098V33.9377H5.2402V33.641H5.96891Z" fill="#19439B"/>
<path d="M7.00104 33.641V35.245H6.61804V33.9377H6.28726V33.641H7.00104Z" fill="#19439B"/>
<path d="M1.16643 37.4689C1.05715 37.3991 0.970838 37.3003 0.917721 37.1843C0.854919 37.0436 0.82437 36.8914 0.828188 36.7381C0.823887 36.5848 0.854456 36.4324 0.917721 36.2919C0.969877 36.1738 1.05659 36.0733 1.16711 36.0026C1.27763 35.9319 1.4071 35.8943 1.53948 35.8943C1.67186 35.8943 1.80134 35.9319 1.91186 36.0026C2.02238 36.0733 2.10909 36.1738 2.16124 36.2919C2.22025 36.4333 2.24657 36.5857 2.23834 36.7381C2.24216 36.8914 2.21161 37.0436 2.14881 37.1843C2.09569 37.3003 2.00938 37.3991 1.9001 37.4689C1.79052 37.5352 1.66363 37.5695 1.53451 37.5678C1.40455 37.57 1.27672 37.5356 1.16643 37.4689ZM1.77078 37.1264C1.83573 37.0072 1.86502 36.8726 1.85534 36.7381C1.86549 36.6027 1.83619 36.4673 1.77078 36.3473C1.74504 36.3064 1.70827 36.2731 1.66444 36.251C1.62061 36.2289 1.57138 36.2188 1.52207 36.2219C1.47273 36.2186 1.4234 36.2285 1.37951 36.2507C1.33563 36.2728 1.2989 36.3062 1.27337 36.3473C1.20796 36.4673 1.17865 36.6027 1.18881 36.7381C1.17912 36.8726 1.20841 37.0072 1.27337 37.1264C1.29878 37.1678 1.33542 37.2016 1.37927 37.2241C1.42313 37.2466 1.47252 37.2571 1.52207 37.2543C1.57158 37.2568 1.62087 37.2463 1.66468 37.2237C1.70848 37.2012 1.74516 37.1676 1.77078 37.1264Z" fill="#19439B"/>
<path d="M3.18592 35.9397V37.5461H2.80291V36.2364H2.47214V35.9397H3.18592Z" fill="#19439B"/>
<path d="M4.22799 35.9397V37.5461H3.84747V36.2364H3.51669V35.9397H4.22799Z" fill="#19439B"/>
<path d="M1.16642 39.7628C1.05714 39.693 0.970828 39.5942 0.917711 39.4782C0.854908 39.3375 0.82436 39.1852 0.828177 39.032C0.823399 38.8814 0.852245 38.7317 0.912737 38.593C0.965811 38.4763 1.05209 38.3767 1.16144 38.3059C1.27102 38.2397 1.39792 38.2053 1.52704 38.207C1.65615 38.2053 1.78305 38.2397 1.89263 38.3059C2.00199 38.3767 2.08826 38.4763 2.14134 38.593C2.2061 38.7307 2.2392 38.8805 2.23833 39.032C2.24215 39.1852 2.2116 39.3375 2.1488 39.4782C2.09568 39.5942 2.00937 39.693 1.90009 39.7628C1.79051 39.8291 1.66362 39.8634 1.5345 39.8617C1.40454 39.8638 1.27671 39.8295 1.16642 39.7628ZM1.77077 39.4203C1.83649 39.3013 1.86583 39.1666 1.85533 39.032C1.86548 38.8966 1.83618 38.7612 1.77077 38.6412C1.74503 38.6003 1.70826 38.567 1.66443 38.5449C1.6206 38.5228 1.57137 38.5127 1.52206 38.5158C1.47272 38.5124 1.42339 38.5224 1.3795 38.5445C1.33562 38.5667 1.29889 38.6001 1.27336 38.6412C1.20795 38.7612 1.17864 38.8966 1.1888 39.032C1.1783 39.1666 1.20763 39.3013 1.27336 39.4203C1.29877 39.4616 1.33541 39.4954 1.37926 39.518C1.42312 39.5405 1.47251 39.551 1.52206 39.5481C1.57157 39.5507 1.62086 39.5401 1.66467 39.5176C1.70847 39.4951 1.74515 39.4615 1.77077 39.4203Z" fill="#19439B"/>
<path d="M24.102 47.3053L47.3633 24.7477V16.9713L16.3474 47.3053H24.102Z" fill="#19439B"/>
<path d="M47.3633 32.394L31.9859 47.3053H47.3633V32.394Z" fill="#19439B"/>
<path d="M0.576996 47.3053H8.46342L47.3633 9.58071V1.93207L0.576996 47.3053Z" fill="#19439B"/>
</svg>
