<svg width="204" height="74" viewBox="0 0 204 74" fill="none" xmlns="http://www.w3.org/2000/svg">
<path fill-rule="evenodd" clip-rule="evenodd" d="M203.842 54.2396C203.842 65.0454 195.085 73.8053 184.286 73.8053C173.485 73.8053 164.728 65.0454 164.728 54.2396H175.395C175.395 59.1514 179.376 63.1338 184.286 63.1338C189.195 63.1338 193.174 59.1514 193.174 54.2396H203.842V54.2396ZM184.286 25.7967C189.195 25.7967 193.174 29.7781 193.174 34.6898C193.174 39.6027 189.195 43.584 184.286 43.584C179.376 43.584 175.395 39.6027 175.395 34.6898C175.395 29.7781 179.376 25.7967 184.286 25.7967ZM184.286 15.1242C195.085 15.1242 203.842 23.8851 203.842 34.6898C203.842 45.4956 195.085 54.2554 184.286 54.2554C173.485 54.2554 164.728 45.4956 164.728 34.6898C164.728 23.884 173.485 15.1242 184.286 15.1242ZM140.883 15.1242C151.543 15.1242 160.185 23.7711 160.185 34.4358V53.7473H140.883C130.223 53.7473 121.58 45.1016 121.58 34.4358C121.58 23.77 130.223 15.1242 140.883 15.1242ZM140.883 25.5427C145.793 25.5427 149.773 29.524 149.773 34.4358C149.773 39.3475 145.793 43.33 140.883 43.33C135.973 43.33 131.994 39.3475 131.994 34.4358C131.994 29.524 135.973 25.5427 140.883 25.5427ZM78.9175 15.6323H97.9673C108.487 15.6323 117.016 24.1652 117.016 34.6898V53.7473H106.348V33.9277C106.348 29.2971 102.596 25.5427 97.9673 25.5427C93.3377 25.5427 89.5851 29.2971 89.5851 33.9277V53.7473H78.9232L78.9175 15.6323Z" fill="#6D28AA"/>
<path fill-rule="evenodd" clip-rule="evenodd" d="M128.395 68.0997C130.349 68.0997 131.977 67.1118 131.977 65.0714C131.977 62.952 130.168 62.5026 128.728 62.1379C127.725 61.8963 126.901 61.6965 126.901 61.0292C126.901 60.4081 127.575 60.1269 128.241 60.1269C129.011 60.1269 129.684 60.5097 129.684 61.3249H131.696C131.696 59.4404 130.467 58.2797 128.291 58.2797C126.195 58.2797 124.863 59.3004 124.863 61.1149C124.863 63.1553 126.589 63.5697 128.019 63.9208C129.04 64.1613 129.902 64.3623 129.902 65.0963C129.902 65.8031 129.151 66.2084 128.38 66.2084C127.546 66.2084 126.792 65.7681 126.792 64.8535H124.73C124.73 66.8837 126.227 68.0997 128.395 68.0997V68.0997ZM137.974 60.4397C137.103 60.4397 136.324 60.7615 135.772 61.2888V57.985H133.802V67.9112H135.772V64.0721C135.772 62.8854 136.426 62.1696 137.408 62.1696C138.291 62.1696 138.676 62.7115 138.676 63.8034V67.9112H140.648V63.4726C140.648 61.6151 139.624 60.4397 137.974 60.4397ZM146.244 68.1167C148.493 68.1167 150.185 66.4625 150.185 64.2629C150.185 62.0521 148.493 60.4104 146.244 60.4104C143.984 60.4104 142.304 62.0498 142.304 64.2629C142.304 66.4625 143.984 68.1167 146.244 68.1167ZM146.244 66.2627C145.107 66.2627 144.299 65.4451 144.299 64.2629C144.299 63.0807 145.107 62.2633 146.244 62.2633C147.382 62.2633 148.188 63.0807 148.188 64.2629C148.188 65.4451 147.382 66.2627 146.244 66.2627ZM155.9 60.4104C154.991 60.4104 154.181 60.7299 153.561 61.2798L153.226 60.6159H151.923V70.5387H153.892V67.5149C154.458 67.9044 155.144 68.1269 155.9 68.1269C158.097 68.1269 159.72 66.4715 159.72 64.2629C159.72 62.0521 158.097 60.4104 155.9 60.4104V60.4104ZM155.739 66.2627C154.593 66.2627 153.751 65.4068 153.751 64.2629C153.751 63.1191 154.593 62.2633 155.739 62.2633C156.884 62.2633 157.726 63.1169 157.726 64.2629C157.726 65.409 156.884 66.2627 155.739 66.2627Z" fill="#DF4661"/>
<path fill-rule="evenodd" clip-rule="evenodd" d="M196.603 5.09971C198.42 5.09971 199.894 6.57322 199.894 8.39113C199.894 10.209 198.42 11.6826 196.603 11.6826C194.786 11.6826 193.314 10.209 193.314 8.39113C193.314 6.57322 194.786 5.09971 196.603 5.09971ZM196.603 1.14886C200.602 1.14886 203.842 4.39173 203.842 8.39113C203.842 12.3905 200.602 15.6334 196.603 15.6334C192.606 15.6334 189.366 12.3905 189.366 8.39113C189.366 4.39173 192.606 1.14886 196.603 1.14886Z" fill="#DF4661"/>
<path fill-rule="evenodd" clip-rule="evenodd" d="M57.5068 17.641C56.6502 17.641 55.9561 18.3355 55.9561 19.1925C55.9561 20.0495 56.6502 20.7439 57.5068 20.7439C58.3634 20.7439 59.0575 20.0495 59.0575 19.1925C59.0575 18.3355 58.3634 17.641 57.5068 17.641ZM30.5376 51.1854C29.681 51.1854 28.9869 51.8798 28.9869 52.7368C28.9869 53.5927 29.681 54.2882 30.5376 54.2882C31.3942 54.2882 32.0883 53.5927 32.0883 52.7368C32.0883 51.8798 31.3942 51.1854 30.5376 51.1854ZM30.5376 49.3246C30.9224 49.3246 31.2915 49.3878 31.6357 49.5052L43.029 29.7668C42.4749 29.2813 42.0787 28.6174 41.9298 27.8654H19.1465C18.9975 28.6185 18.6014 29.2813 18.0472 29.7668L29.4383 49.5063C29.7825 49.3878 30.1527 49.3246 30.5376 49.3246ZM32.7858 50.1692C33.2632 50.5892 33.6232 51.1391 33.8083 51.7646L54.121 49.8654C54.2282 48.9644 54.6864 48.1729 55.3546 47.6275L46.2569 30.4692C45.9465 30.5618 45.6169 30.6125 45.2761 30.6125C44.8912 30.6125 44.5222 30.5482 44.1768 30.4307L32.7858 50.1692V50.1692ZM33.9313 53.0846C33.7801 54.5841 32.6582 55.7956 31.2046 56.0847L31.2114 62.5117C31.9653 62.6597 32.63 63.0559 33.1176 63.6115L54.2779 51.3762C54.2564 51.3141 54.2372 51.2509 54.2192 51.1876L33.9313 53.0846ZM29.8807 56.0858C28.4259 55.8013 27.3007 54.592 27.145 53.0936L6.85483 51.2554C6.84016 51.3028 6.82437 51.3502 6.80744 51.3965L27.9858 63.6149C28.4722 63.0582 29.1347 62.6619 29.8875 62.514L29.8807 56.0858ZM27.2646 51.7737C27.4497 51.1447 27.8108 50.5903 28.2916 50.1692L16.8995 30.4307C16.5552 30.5482 16.185 30.6125 15.8002 30.6125C15.4594 30.6125 15.1309 30.5618 14.8206 30.4692L5.75105 47.5891C6.44627 48.1559 6.91352 48.9915 6.99591 49.9365L27.2646 51.7737V51.7737ZM15.8002 25.6477C14.9447 25.6477 14.2495 26.3421 14.2495 27.1991C14.2495 28.0562 14.9447 28.7506 15.8002 28.7506C16.6568 28.7506 17.3509 28.0562 17.3509 27.1991C17.3509 26.3421 16.6568 25.6477 15.8002 25.6477ZM15.8002 23.7869C16.2279 23.7869 16.6365 23.8648 17.0123 24.0093L28.216 6.09226C28.1359 6.01548 28.058 5.93643 27.9847 5.85174L6.79953 18.0758C6.91578 18.4213 6.98012 18.7905 6.98012 19.1755C6.98012 19.6283 6.89207 20.0597 6.7318 20.456L13.3669 24.8077C13.9865 24.1776 14.8476 23.7869 15.8002 23.7869V23.7869ZM18.1375 24.7139C18.6443 25.1916 19.0054 25.8239 19.1465 26.5341H41.9298C42.0708 25.8228 42.432 25.1904 42.9399 24.7128L31.761 6.79797C31.3851 6.94024 30.9777 7.01928 30.5522 7.01928C30.1256 7.01928 29.7171 6.94024 29.3412 6.79684L18.1375 24.7139V24.7139ZM13.6491 29.847C12.8805 29.2214 12.3895 28.2684 12.3895 27.1991C12.3895 26.7464 12.4776 26.3151 12.6378 25.9199L6.00273 21.567C5.53097 22.0458 4.9204 22.3868 4.23533 22.5223V46.8834C4.35271 46.9059 4.46783 46.9342 4.57957 46.9669L13.6491 29.847V29.847ZM3.56947 17.6241C2.71285 17.6241 2.01876 18.3185 2.01876 19.1755C2.01876 20.0314 2.71285 20.727 3.56947 20.727C4.42608 20.727 5.11904 20.0314 5.11904 19.1755C5.11904 18.3185 4.42608 17.6241 3.56947 17.6241ZM3.56947 15.7622C4.59086 15.7622 5.50728 16.2116 6.13253 16.924L27.321 4.6989C27.2048 4.35564 27.1416 3.98868 27.1416 3.60591C27.1416 1.72138 28.6697 0.193665 30.5522 0.193665C32.437 0.193665 33.964 1.72138 33.964 3.60591C33.964 3.99094 33.8997 4.3613 33.7835 4.70568L54.946 16.9387C55.5701 16.2274 56.4866 15.7791 57.5068 15.7791C59.3916 15.7791 60.9186 17.3068 60.9186 19.1925C60.9186 20.8489 59.7381 22.2298 58.1727 22.5404V46.9274C59.7381 47.2368 60.9186 48.6177 60.9186 50.2753C60.9186 52.1598 59.3916 53.6876 57.5068 53.6876C56.4843 53.6876 55.5656 53.237 54.9415 52.5234L33.7812 64.7553C33.8997 65.102 33.964 65.4735 33.964 65.8608C33.964 67.7453 32.437 69.273 30.5522 69.273C28.6697 69.273 27.1416 67.7453 27.1416 65.8608C27.1416 65.4769 27.2059 65.1076 27.3222 64.7632L6.1235 52.5302C5.49937 53.2167 4.59876 53.6491 3.59881 53.6491C1.71403 53.6491 0.186999 52.1214 0.186999 50.2358C0.186999 48.5895 1.35286 47.2165 2.90244 46.8947V22.5223C1.33819 22.2129 0.157654 20.832 0.157654 19.1755C0.157654 17.291 1.68582 15.7622 3.56947 15.7622V15.7622ZM30.5522 2.05561C29.6968 2.05561 29.0027 2.75002 29.0027 3.60591C29.0027 4.46292 29.6968 5.15734 30.5522 5.15734C31.4089 5.15734 32.1029 4.46292 32.1029 3.60591C32.1029 2.75002 31.4089 2.05561 30.5522 2.05561ZM33.1176 5.85513C33.0453 5.93869 32.9686 6.01887 32.8873 6.09452L44.0662 24.0082C44.442 23.8648 44.8495 23.7869 45.2761 23.7869C46.2297 23.7869 47.092 24.1799 47.7116 24.811L54.3433 20.4695C54.1842 20.0743 54.0962 19.6441 54.0962 19.1925C54.0962 18.8063 54.1594 18.4371 54.2767 18.0905L33.1176 5.85513V5.85513ZM3.59881 48.6855C2.7422 48.6855 2.04807 49.3799 2.04807 50.2358C2.04807 51.0928 2.7422 51.7872 3.59881 51.7872C4.4543 51.7872 5.14839 51.0928 5.14839 50.2358C5.14839 49.3799 4.4543 48.6855 3.59881 48.6855ZM30.5522 64.3093C29.6968 64.3093 29.0027 65.0038 29.0027 65.8608C29.0027 66.7178 29.6968 67.4122 30.5522 67.4122C31.4089 67.4122 32.1029 66.7178 32.1029 65.8608C32.1029 65.0038 31.4089 64.3093 30.5522 64.3093ZM57.5068 48.7239C56.6502 48.7239 55.9561 49.4183 55.9561 50.2753C55.9561 51.1323 56.6502 51.8267 57.5068 51.8267C58.3634 51.8267 59.0575 51.1323 59.0575 50.2753C59.0575 49.4183 58.3634 48.7239 57.5068 48.7239ZM56.5249 47.0065C56.6288 46.9749 56.7348 46.9489 56.8421 46.9274V22.5404C56.1547 22.4037 55.5419 22.0627 55.0713 21.5817L48.4407 25.9232C48.5998 26.3173 48.6868 26.7475 48.6868 27.1991C48.6868 28.2673 48.1969 29.2203 47.4283 29.8459L56.5249 47.0065V47.0065ZM45.2761 25.6477C44.4195 25.6477 43.7254 26.3421 43.7254 27.1991C43.7254 28.0562 44.4195 28.7506 45.2761 28.7506C46.1327 28.7506 46.8268 28.0562 46.8268 27.1991C46.8268 26.3421 46.1327 25.6477 45.2761 25.6477Z" fill="#DF4661"/>
</svg>
